<svg xmlns="http://www.w3.org/2000/svg" viewBox="0 0 256.88 42.51"><title>it.whiteRG</title><path d="M50.77,16H48.56v8.89H45V.39h6.33c4.69,0,7.35,2.8,7.35,7.66,0,3.82-1.61,6.44-4.41,7.46l5.32,9.38H55.7Zm-2.21-3.36h2.73c2.49,0,3.78-1.61,3.78-4.52s-1.29-4.37-3.74-4.37H48.56Z" style="fill:#fff"/><path d="M74.64,19.11c-.32,3.92-2.73,6.16-6.72,6.16s-6.27-2.52-6.27-6.93V12.85C61.65,8.47,64.07,6,68,6s6.44,2.48,6.44,6.86v4.09H65.05v1.4C65.05,20.86,66.13,22,68,22c2.06,0,2.94-.91,3.25-2.91Zm-9.59-6.3v1.58h6V12.81c0-2.52-1.12-3.64-3-3.64S65.05,10.29,65.05,12.81Z" style="fill:#fff"/><path d="M76.81,19.22h3.36a2.86,2.86,0,0,0,3.18,3c1.79,0,2.8-.87,2.8-2.31,0-3.71-9.06-2.45-9.06-8.75C77.09,8,79.43,6,83,6c3.92,0,6,2.45,6.12,5.88H85.84A2.55,2.55,0,0,0,83,9.07c-1.61,0-2.59.8-2.59,2.1,0,3.5,9.1,2.13,9.1,8.75,0,3.25-2.31,5.42-6.13,5.42C79.22,25.34,76.84,22.61,76.81,19.22Z" style="fill:#fff"/><path d="M100.64,21.91V25.1H99.35c-3.68,0-5.85-2.35-5.85-6.16V9.52H90.91V6.44H93.5V2.07h3.36V6.44h3.43V9.52H96.86V19c0,2,.84,2.94,2.66,2.94Z" style="fill:#fff"/><path d="M115.38,12.64V24.89h-2.77l-.24-1.72a4.53,4.53,0,0,1-4.1,2.17,5.36,5.36,0,0,1-5.67-5.7c0-3.78,2.63-5.71,6.69-5.71H112V12.64c0-2.17-.8-3.4-2.66-3.4a2.59,2.59,0,0,0-2.8,2.45h-3.39c.17-3.53,2.55-5.7,6.26-5.7C113.35,6,115.38,8.4,115.38,12.64ZM112,16.87h-2.69c-2.07,0-3.26.95-3.26,2.77s1.09,2.69,2.94,2.69a2.79,2.79,0,0,0,3-2.94Z" style="fill:#fff"/><path d="M131.79,6.44V24.89h-2.41L129,22.82a5.07,5.07,0,0,1-4.59,2.52c-3.18,0-5.18-2.27-5.18-7.31V6.44h3.4V17.85c0,3,.8,4.27,2.59,4.27s3.15-1.54,3.15-4.27V6.44Z" style="fill:#fff"/><path d="M145.3,6.3V9.66A5.58,5.58,0,0,0,143,9.24c-2.31,0-3.78,1.51-3.78,4.27V24.89h-3.4V6.44h2.42l.38,2.14A5.88,5.88,0,0,1,145.3,6.3Z" style="fill:#fff"/><path d="M159.44,12.64V24.89h-2.76l-.25-1.72a4.5,4.5,0,0,1-4.09,2.17,5.35,5.35,0,0,1-5.67-5.7c0-3.78,2.62-5.71,6.68-5.71h2.7V12.64c0-2.17-.81-3.4-2.66-3.4a2.58,2.58,0,0,0-2.8,2.45h-3.4c.18-3.53,2.56-5.7,6.27-5.7C157.41,6,159.44,8.4,159.44,12.64Zm-3.39,4.23h-2.7c-2.06,0-3.25.95-3.25,2.77s1.08,2.69,2.94,2.69a2.8,2.8,0,0,0,3-2.94Z" style="fill:#fff"/><path d="M176,13.3V24.89h-3.39V13.48c0-3-.81-4.27-2.59-4.27-1.93,0-3.15,1.54-3.15,4.27V24.89h-3.4V6.44h2.42l.35,2.07A5,5,0,0,1,170.85,6C174,6,176,8.26,176,13.3Z" style="fill:#fff"/><path d="M188.07,21.91V25.1h-1.29c-3.68,0-5.85-2.35-5.85-6.16V9.52h-2.59V6.44h2.59V2.07h3.36V6.44h3.43V9.52h-3.43V19c0,2,.84,2.94,2.66,2.94Z" style="fill:#fff"/><path d="M198.22,17.61v-10c0-5,2.73-7.63,7.18-7.63s7,2.63,7.14,7.46H209c-.14-2.84-1.4-4.06-3.64-4.06s-3.57,1.29-3.57,4.27v9.94c0,3,1.4,4.27,3.67,4.27s3.75-1.3,3.75-4.1V14.7h-3.89V11.55h7.35v6.23c-.07,4.8-2.83,7.49-7.24,7.49S198.22,22.58,198.22,17.61Z" style="fill:#fff"/><path d="M228.57,6.44V24.89h-2.42l-.35-2.07a5,5,0,0,1-4.58,2.52C218,25.34,216,23.07,216,18V6.44h3.39V17.85c0,3,.81,4.27,2.59,4.27s3.15-1.54,3.15-4.27V6.44Z" style="fill:#fff"/><path d="M242.08,6.3V9.66a5.66,5.66,0,0,0-2.28-.42c-2.31,0-3.78,1.51-3.78,4.27V24.89h-3.39V6.44H235l.39,2.14A5.14,5.14,0,0,1,240.15,6,5.25,5.25,0,0,1,242.08,6.3Z" style="fill:#fff"/><path d="M256.88,6.44V24.89h-2.41l-.35-2.07a5.07,5.07,0,0,1-4.59,2.52c-3.18,0-5.18-2.27-5.18-7.31V6.44h3.4V17.85c0,3,.8,4.27,2.59,4.27s3.15-1.54,3.15-4.27V6.44Z" style="fill:#fff"/><path d="M50.76,37.11a1.67,1.67,0,0,0-.59-1.34A6.59,6.59,0,0,0,48,34.84a7.64,7.64,0,0,1-2.3-1A2.33,2.33,0,0,1,45.62,30a3.93,3.93,0,0,1,2.46-.73,4.11,4.11,0,0,1,1.81.39,2.9,2.9,0,0,1,1.23,1.09,2.79,2.79,0,0,1,.44,1.56H50.7A2.15,2.15,0,0,0,50,30.67,2.78,2.78,0,0,0,48.08,30a3,3,0,0,0-1.86.52,1.62,1.62,0,0,0-.69,1.36,1.55,1.55,0,0,0,.62,1.26,5.69,5.69,0,0,0,2,.86,9.24,9.24,0,0,1,2.07.78,3,3,0,0,1,1.06,1,2.37,2.37,0,0,1,.36,1.32,2.28,2.28,0,0,1-1,1.92,4.06,4.06,0,0,1-2.53.73,4.84,4.84,0,0,1-2-.39,3,3,0,0,1-1.36-1.07,2.77,2.77,0,0,1-.47-1.58h.86A2,2,0,0,0,46,38.4a3.38,3.38,0,0,0,2.14.62A3.14,3.14,0,0,0,50,38.5,1.64,1.64,0,0,0,50.76,37.11Z" style="fill:#fff"/><path d="M56.07,39a2.19,2.19,0,0,0,1.46-.49,1.7,1.7,0,0,0,.64-1.27H59a2.3,2.3,0,0,1-.43,1.26,2.72,2.72,0,0,1-1.06.89,3.2,3.2,0,0,1-1.41.32,2.93,2.93,0,0,1-2.35-1,4.19,4.19,0,0,1-.87-2.78v-.25a4.76,4.76,0,0,1,.39-2,3,3,0,0,1,1.12-1.32,3.07,3.07,0,0,1,1.7-.47,2.91,2.91,0,0,1,2,.74,2.65,2.65,0,0,1,.86,2h-.8a2.05,2.05,0,0,0-.64-1.43,2,2,0,0,0-1.47-.55,2.07,2.07,0,0,0-1.75.82,3.65,3.65,0,0,0-.63,2.29V36a3.58,3.58,0,0,0,.63,2.25A2.09,2.09,0,0,0,56.07,39Z" style="fill:#fff"/><path d="M60.18,35.72a4.47,4.47,0,0,1,.42-2,3.31,3.31,0,0,1,1.2-1.36,3.2,3.2,0,0,1,1.74-.48A3.11,3.11,0,0,1,66,33a4.08,4.08,0,0,1,.93,2.8V36a4.48,4.48,0,0,1-.42,2,3.08,3.08,0,0,1-1.19,1.35,3.24,3.24,0,0,1-1.75.48,3.1,3.1,0,0,1-2.44-1.06,4,4,0,0,1-.94-2.8ZM61,36a3.39,3.39,0,0,0,.7,2.22,2.37,2.37,0,0,0,3.67,0,3.5,3.5,0,0,0,.7-2.29v-.16a3.91,3.91,0,0,0-.32-1.58,2.5,2.5,0,0,0-.9-1.11,2.27,2.27,0,0,0-1.33-.4,2.22,2.22,0,0,0-1.82.88A3.52,3.52,0,0,0,61,35.8Z" style="fill:#fff"/><path d="M74.72,35.91a4.54,4.54,0,0,1-.79,2.8,2.48,2.48,0,0,1-2.09,1,2.78,2.78,0,0,1-2.37-1.09v3.85h-.83V32.06h.77l0,1.07a2.69,2.69,0,0,1,2.37-1.21,2.49,2.49,0,0,1,2.12,1,4.59,4.59,0,0,1,.78,2.84Zm-.84-.15a3.85,3.85,0,0,0-.6-2.28,1.89,1.89,0,0,0-1.65-.83,2.3,2.3,0,0,0-1.32.37,2.23,2.23,0,0,0-.84,1.07v3.62a2.2,2.2,0,0,0,.86,1,2.44,2.44,0,0,0,1.31.34,1.91,1.91,0,0,0,1.65-.84A4.24,4.24,0,0,0,73.88,35.76Z" style="fill:#fff"/><path d="M80.05,32.77a3.24,3.24,0,0,0-.56-.05,2,2,0,0,0-1.32.44,2.43,2.43,0,0,0-.78,1.26v5.19h-.83V32.06h.82v1.2a2.24,2.24,0,0,1,2.13-1.34,1.34,1.34,0,0,1,.55.09Z" style="fill:#fff"/><path d="M81.32,29.88a.54.54,0,0,1,.16-.4.53.53,0,0,1,.41-.16.53.53,0,0,1,.58.56.53.53,0,0,1-.15.39.57.57,0,0,1-.43.16.53.53,0,0,1-.41-.16A.5.5,0,0,1,81.32,29.88Zm1,9.73h-.84V32.06h.84Z" style="fill:#fff"/><path d="M88,29.88a.58.58,0,1,1,1.15,0,.53.53,0,0,1-.15.39.57.57,0,0,1-.43.16.57.57,0,0,1-.42-.16A.53.53,0,0,1,88,29.88Zm1,9.73h-.83V32.06H89Z" style="fill:#fff"/><path d="M98.22,32.77a3.45,3.45,0,0,0-.57-.05,2,2,0,0,0-1.32.44,2.36,2.36,0,0,0-.77,1.26v5.19h-.83V32.06h.81l0,1.2a2.22,2.22,0,0,1,2.12-1.34,1.42,1.42,0,0,1,.56.09Z" style="fill:#fff"/><path d="M99.49,29.88a.57.57,0,0,1,.15-.4.54.54,0,0,1,.42-.16.55.55,0,0,1,.42.16.58.58,0,0,1,.16.4.53.53,0,0,1-.16.39.55.55,0,0,1-.42.16.54.54,0,0,1-.42-.16A.53.53,0,0,1,99.49,29.88Zm1,9.73h-.84V32.06h.84Z" style="fill:#fff"/><path d="M107.26,37.69a1.2,1.2,0,0,0-.5-1,3.8,3.8,0,0,0-1.5-.59,6.4,6.4,0,0,1-1.56-.49,2,2,0,0,1-.83-.67,1.67,1.67,0,0,1-.27-1,1.8,1.8,0,0,1,.75-1.48,3,3,0,0,1,1.91-.58,3.15,3.15,0,0,1,2,.62,2,2,0,0,1,.76,1.63h-.83a1.35,1.35,0,0,0-.56-1.1,2.19,2.19,0,0,0-1.4-.44,2.13,2.13,0,0,0-1.32.37,1.13,1.13,0,0,0-.5,1,1,1,0,0,0,.42.88,4.46,4.46,0,0,0,1.51.56A7.39,7.39,0,0,1,107,36a2.17,2.17,0,0,1,.81.7,1.78,1.78,0,0,1,.27,1,1.81,1.81,0,0,1-.78,1.53,3.28,3.28,0,0,1-2,.57,3.37,3.37,0,0,1-2.14-.64,2,2,0,0,1-.82-1.62h.84a1.47,1.47,0,0,0,.62,1.15,2.54,2.54,0,0,0,1.5.4,2.35,2.35,0,0,0,1.41-.38A1.16,1.16,0,0,0,107.26,37.69Z" style="fill:#fff"/><path d="M111.27,30.13v1.93h1.56v.68h-1.56v5a1.61,1.61,0,0,0,.23.94.88.88,0,0,0,.75.3,4.65,4.65,0,0,0,.68-.07l0,.68a2.71,2.71,0,0,1-.9.12,1.5,1.5,0,0,1-1.25-.5,2.34,2.34,0,0,1-.39-1.47v-5h-1.38v-.68h1.38V30.13Z" style="fill:#fff"/><path d="M114,35.72a4.34,4.34,0,0,1,.43-2,3.14,3.14,0,0,1,2.94-1.84A3.09,3.09,0,0,1,119.77,33a4.08,4.08,0,0,1,.93,2.8V36a4.48,4.48,0,0,1-.42,2,3.08,3.08,0,0,1-1.19,1.35,3.22,3.22,0,0,1-1.75.48,3.1,3.1,0,0,1-2.44-1.06,4.08,4.08,0,0,1-.94-2.8Zm.84.23a3.45,3.45,0,0,0,.7,2.22,2.25,2.25,0,0,0,1.84.87,2.22,2.22,0,0,0,1.83-.87,3.5,3.5,0,0,0,.7-2.29v-.16a3.75,3.75,0,0,0-.32-1.58,2.5,2.5,0,0,0-.9-1.11,2.24,2.24,0,0,0-1.32-.4,2.21,2.21,0,0,0-1.82.88,3.52,3.52,0,0,0-.71,2.29Z" style="fill:#fff"/><path d="M125.92,32.77a3.45,3.45,0,0,0-.57-.05,2,2,0,0,0-1.32.44,2.36,2.36,0,0,0-.77,1.26v5.19h-.83V32.06h.81l0,1.2a2.22,2.22,0,0,1,2.13-1.34,1.4,1.4,0,0,1,.55.09Z" style="fill:#fff"/><path d="M131.72,39.61a4,4,0,0,1-.16-1,3,3,0,0,1-1.12.88,3.36,3.36,0,0,1-1.44.31,2.5,2.5,0,0,1-1.76-.61,2,2,0,0,1-.67-1.53,2,2,0,0,1,.91-1.75,4.43,4.43,0,0,1,2.56-.64h1.51v-.86a1.65,1.65,0,0,0-.49-1.27,2.08,2.08,0,0,0-1.46-.47,2.25,2.25,0,0,0-1.44.45,1.32,1.32,0,0,0-.58,1.08h-.83a2,2,0,0,1,.83-1.56,3.24,3.24,0,0,1,2.06-.66,3,3,0,0,1,2,.63,2.31,2.31,0,0,1,.75,1.76v3.58a4.57,4.57,0,0,0,.22,1.64v.08ZM129.1,39a2.81,2.81,0,0,0,1.5-.41,2.42,2.42,0,0,0,1-1.08V35.86h-1.49a3.7,3.7,0,0,0-1.95.46,1.41,1.41,0,0,0-.24,2.27A1.8,1.8,0,0,0,129.1,39Z" style="fill:#fff"/><path d="M135.41,32.06l0,1.29a3,3,0,0,1,1.06-1.06,2.75,2.75,0,0,1,1.41-.37,2.26,2.26,0,0,1,1.8.68,3,3,0,0,1,.6,2v5h-.83v-5a2.29,2.29,0,0,0-.42-1.51,1.71,1.71,0,0,0-1.36-.49,2.14,2.14,0,0,0-1.37.48,2.87,2.87,0,0,0-.88,1.31v5.17h-.83V32.06Z" style="fill:#fff"/><path d="M143.76,30.13v1.93h1.56v.68h-1.56v5a1.61,1.61,0,0,0,.22.94.91.91,0,0,0,.76.3,4.65,4.65,0,0,0,.68-.07l0,.68a2.65,2.65,0,0,1-.89.12,1.5,1.5,0,0,1-1.25-.5,2.34,2.34,0,0,1-.39-1.47v-5h-1.39v-.68h1.39V30.13Z" style="fill:#fff"/><path d="M147,29.88a.54.54,0,0,1,.16-.4.53.53,0,0,1,.41-.16.53.53,0,0,1,.58.56.53.53,0,0,1-.15.39.57.57,0,0,1-.43.16.53.53,0,0,1-.41-.16A.5.5,0,0,1,147,29.88Zm1,9.73h-.84V32.06H148Z" style="fill:#fff"/><path d="M153.39,35.76a4.58,4.58,0,0,1,.79-2.8,2.53,2.53,0,0,1,2.13-1,2.61,2.61,0,0,1,2.33,1.21V28.89h.83V39.61h-.78l0-1a2.67,2.67,0,0,1-2.35,1.15,2.53,2.53,0,0,1-2.11-1,4.6,4.6,0,0,1-.8-2.84Zm.85.15a3.93,3.93,0,0,0,.58,2.28,1.87,1.87,0,0,0,1.63.83,2.24,2.24,0,0,0,2.19-1.36V34.12a2.23,2.23,0,0,0-2.18-1.47,1.91,1.91,0,0,0-1.64.82A4.23,4.23,0,0,0,154.24,35.91Z" style="fill:#fff"/><path d="M161.62,29.88a.53.53,0,0,1,.57-.56.55.55,0,0,1,.58.56.5.5,0,0,1-.16.39.54.54,0,0,1-.42.16.57.57,0,0,1-.42-.16A.53.53,0,0,1,161.62,29.88Zm1,9.73h-.83V32.06h.83Z" style="fill:#fff"/><path d="M169.64,30.13v1.93h1.57v.68h-1.57v5a1.61,1.61,0,0,0,.23.94.89.89,0,0,0,.76.3,4.78,4.78,0,0,0,.68-.07l0,.68a2.69,2.69,0,0,1-.89.12,1.5,1.5,0,0,1-1.25-.5,2.34,2.34,0,0,1-.39-1.47v-5h-1.39v-.68h1.39V30.13Z" style="fill:#fff"/><path d="M177.79,38.65a2.7,2.7,0,0,1-2.4,1.1,2.37,2.37,0,0,1-1.84-.7,3.08,3.08,0,0,1-.64-2.08V32.06h.83v4.81c0,1.43.58,2.15,1.74,2.15a2.14,2.14,0,0,0,2.3-1.5V32.06h.84v7.55h-.81Z" style="fill:#fff"/><path d="M182.09,30.13v1.93h1.56v.68h-1.56v5a1.61,1.61,0,0,0,.22.94.9.9,0,0,0,.76.3,4.78,4.78,0,0,0,.68-.07l0,.68a2.65,2.65,0,0,1-.89.12,1.5,1.5,0,0,1-1.25-.5,2.34,2.34,0,0,1-.39-1.47v-5h-1.39v-.68h1.39V30.13Z" style="fill:#fff"/><path d="M186.68,30.13v1.93h1.56v.68h-1.56v5a1.61,1.61,0,0,0,.22.94.91.91,0,0,0,.76.3,4.65,4.65,0,0,0,.68-.07l0,.68a2.65,2.65,0,0,1-.89.12,1.5,1.5,0,0,1-1.25-.5,2.34,2.34,0,0,1-.39-1.47v-5h-1.39v-.68h1.39V30.13Z" style="fill:#fff"/><path d="M189.37,35.72a4.47,4.47,0,0,1,.42-2A3.24,3.24,0,0,1,191,32.4a3.2,3.2,0,0,1,1.74-.48A3.11,3.11,0,0,1,195.18,33a4.08,4.08,0,0,1,.93,2.8V36a4.48,4.48,0,0,1-.42,2,3.08,3.08,0,0,1-1.19,1.35,3.24,3.24,0,0,1-1.75.48,3.09,3.09,0,0,1-2.44-1.06,4,4,0,0,1-.94-2.8Zm.84.23a3.39,3.39,0,0,0,.7,2.22,2.37,2.37,0,0,0,3.67,0,3.5,3.5,0,0,0,.7-2.29v-.16a3.91,3.91,0,0,0-.32-1.58,2.5,2.5,0,0,0-.9-1.11,2.27,2.27,0,0,0-1.33-.4,2.22,2.22,0,0,0-1.82.88,3.52,3.52,0,0,0-.7,2.29Z" style="fill:#fff"/><path d="M201.26,29.88a.53.53,0,0,1,.57-.56.55.55,0,0,1,.58.56.5.5,0,0,1-.16.39.54.54,0,0,1-.42.16.57.57,0,0,1-.42-.16A.53.53,0,0,1,201.26,29.88Zm1,9.73h-.83V32.06h.83Z" style="fill:#fff"/><path d="M205.45,39.61h-.84V28.89h.84Z" style="fill:#fff"/><path d="M212,32.06l0,1.23a2.77,2.77,0,0,1,1-1,2.87,2.87,0,0,1,1.4-.34,2.12,2.12,0,0,1,2.27,1.46,2.87,2.87,0,0,1,1.08-1.08,3,3,0,0,1,1.49-.38c1.62,0,2.45.88,2.48,2.65v5h-.84v-5a2.27,2.27,0,0,0-.43-1.5,1.81,1.81,0,0,0-1.4-.48,2.17,2.17,0,0,0-1.52.58,2.06,2.06,0,0,0-.7,1.38v5H216v-5a2.1,2.1,0,0,0-.46-1.45,1.8,1.8,0,0,0-1.38-.47,2.12,2.12,0,0,0-1.36.45,2.66,2.66,0,0,0-.84,1.33v5.18h-.83V32.06Z" style="fill:#fff"/><path d="M223.39,35.72a4.47,4.47,0,0,1,.42-2A3.31,3.31,0,0,1,225,32.4a3.22,3.22,0,0,1,1.75-.48A3.1,3.1,0,0,1,229.2,33a4.08,4.08,0,0,1,.93,2.8V36a4.48,4.48,0,0,1-.42,2,3.08,3.08,0,0,1-1.19,1.35,3.22,3.22,0,0,1-1.75.48,3.1,3.1,0,0,1-2.44-1.06,4.08,4.08,0,0,1-.94-2.8Zm.84.23a3.39,3.39,0,0,0,.7,2.22,2.37,2.37,0,0,0,3.67,0,3.5,3.5,0,0,0,.7-2.29v-.16a3.91,3.91,0,0,0-.32-1.58,2.5,2.5,0,0,0-.9-1.11,2.26,2.26,0,0,0-1.32-.4,2.23,2.23,0,0,0-1.83.88,3.52,3.52,0,0,0-.7,2.29Z" style="fill:#fff"/><path d="M232.65,32.06l0,1.29a2.91,2.91,0,0,1,1.06-1.06,2.69,2.69,0,0,1,1.4-.37,2.29,2.29,0,0,1,1.81.68,3,3,0,0,1,.6,2v5h-.83v-5a2.29,2.29,0,0,0-.43-1.51,1.68,1.68,0,0,0-1.35-.49,2.12,2.12,0,0,0-1.37.48,2.8,2.8,0,0,0-.88,1.31v5.17h-.83V32.06Z" style="fill:#fff"/><path d="M239.37,35.76a4.52,4.52,0,0,1,.79-2.8,2.53,2.53,0,0,1,2.13-1,2.62,2.62,0,0,1,2.33,1.21V28.89h.83V39.61h-.78l0-1a2.68,2.68,0,0,1-2.36,1.15,2.51,2.51,0,0,1-2.1-1,4.6,4.6,0,0,1-.8-2.84Zm.85.15a4,4,0,0,0,.57,2.28,1.89,1.89,0,0,0,1.64.83,2.25,2.25,0,0,0,2.19-1.36V34.12a2.24,2.24,0,0,0-2.18-1.47,1.9,1.9,0,0,0-1.64.82A4.23,4.23,0,0,0,240.22,35.91Z" style="fill:#fff"/><path d="M247.19,35.72a4.47,4.47,0,0,1,.42-2,3.29,3.29,0,0,1,1.19-1.36,3.24,3.24,0,0,1,1.75-.48A3.09,3.09,0,0,1,253,33a4.08,4.08,0,0,1,.94,2.8V36a4.35,4.35,0,0,1-.43,2,3,3,0,0,1-1.19,1.35,3.22,3.22,0,0,1-1.75.48,3.1,3.1,0,0,1-2.44-1.06,4.08,4.08,0,0,1-.93-2.8ZM248,36a3.45,3.45,0,0,0,.7,2.22,2.26,2.26,0,0,0,1.84.87,2.22,2.22,0,0,0,1.83-.87,3.5,3.5,0,0,0,.71-2.29v-.16a3.76,3.76,0,0,0-.33-1.58,2.5,2.5,0,0,0-.9-1.11,2.34,2.34,0,0,0-3.14.48A3.52,3.52,0,0,0,248,35.8Z" style="fill:#fff"/><path d="M255.63,39.12a.59.59,0,0,1,.15-.41.63.63,0,0,1,.84,0,.56.56,0,0,1,.16.41.53.53,0,0,1-.16.39.66.66,0,0,1-.84,0A.56.56,0,0,1,255.63,39.12Zm.91-2.34h-.77l0-7.33h.86Z" style="fill:#fff"/><path d="M20.19,7.92V4.12l.75,1.08,3.3,4.72.43.63a.88.88,0,0,0,1.07.32L30.4,9.23c1.68-.59,3.36-1.17,5-1.78A4.11,4.11,0,0,1,37,7.1a2.89,2.89,0,0,1,2.24,1.13,3.12,3.12,0,0,1,.68,1.95,3.42,3.42,0,0,1-.83,2.27c-.57.71-1.1,1.46-1.66,2.19l-1.85,2.43L33,20.49a2.8,2.8,0,0,0-.25.35,1,1,0,0,0,.21,1.09c.36.47.71.95,1.08,1.42l1.81,2.33c.51.65,1,1.31,1.51,2L39,29.78a4.83,4.83,0,0,1,.91,1.51A5.69,5.69,0,0,0,40,32v.2a.06.06,0,0,0,0,.07,3,3,0,0,1-.48,1.56,2.89,2.89,0,0,1-3.28,1.39,27,27,0,0,1-2.58-.88c-1.81-.64-3.63-1.26-5.45-1.89L26,31.7a1.08,1.08,0,0,0-1.29.25,7.23,7.23,0,0,0-.6.85c-.67,1-1.35,1.91-2,2.87L19,40.32a4.24,4.24,0,0,1-1.18,1.35,5,5,0,0,1-1.1.45H15.6a5.13,5.13,0,0,1-1-.41,3,3,0,0,1-1.33-2,4.24,4.24,0,0,1-.11-.94q0-10.82,0-21.62a6.19,6.19,0,0,1,.62-2.93,3.52,3.52,0,0,1,1.85-1.79,1.49,1.49,0,0,0,.77-.93,5,5,0,0,0,.27-1.38c.1-2.9,0-5.79,0-8.68A1.09,1.09,0,0,1,17.28.39h.66c.26.14.55.26.63.6a1,1,0,0,1,0,.24c0,3,0,6,0,8.94a5.29,5.29,0,0,1-.85,3,3.38,3.38,0,0,1-1.3,1.13A2.6,2.6,0,0,0,15.14,16,4.7,4.7,0,0,0,15,17.36V38.85a1.22,1.22,0,0,0,1.54,1.08,1.7,1.7,0,0,0,.67-.66c.21-.29.39-.6.58-.91l1.12-1.61,3.54-5.2A5,5,0,0,1,24,29.82a3.13,3.13,0,0,1,2.19-.36,25.64,25.64,0,0,1,2.56.86L33.9,32.1c1,.33,1.89.68,2.85,1a.78.78,0,0,0,.88-.27.92.92,0,0,0,.24-1,3.36,3.36,0,0,0-.69-1c-1-1.35-2.07-2.69-3.1-4-.82-1.06-1.62-2.15-2.46-3.2a3.5,3.5,0,0,1-1-2.84,2.83,2.83,0,0,1,.42-1.2c.53-.8,1.15-1.54,1.72-2.31.79-1.07,1.59-2.12,2.38-3.17s1.66-2.17,2.48-3.26a.8.8,0,0,0,.2-.55,1,1,0,0,0-1.35-1c-1,.34-2,.71-2.93,1.05-2.18.77-4.36,1.52-6.52,2.31a4.2,4.2,0,0,1-2.29.3,2.73,2.73,0,0,1-1.72-1c-.81-1.1-1.57-2.25-2.36-3.37A3.46,3.46,0,0,0,20.19,7.92Z" style="fill:#fff"/><path d="M7.27.39a1.09,1.09,0,0,1,.57,1.09c0,2.85,0,5.71,0,8.56a4.17,4.17,0,0,0,.39,1.8,1.56,1.56,0,0,0,.82.78A3.59,3.59,0,0,1,10.61,14a5.48,5.48,0,0,1,.78,2.29,9.17,9.17,0,0,1,0,1.28q0,11.73,0,23.46a.9.9,0,0,1-.85.9,1,1,0,0,1-.92-.64,1,1,0,0,1,0-.25q0-12,0-23.94A3.78,3.78,0,0,0,9,14.94a2,2,0,0,0-.74-.66,3.72,3.72,0,0,1-2-2.59A7,7,0,0,1,6,10.24C5.94,7.82,6,5.39,6,3,6,2.5,6,2,6,1.57A1.17,1.17,0,0,1,6.61.39Z" style="fill:#fff"/><path d="M8,23.71c.12,0,.1.09.1.16v2c0,.18-.07.18-.19.14L4.46,25c-.8-.23-1.61-.41-2.38-.69A2.93,2.93,0,0,1,.05,22s0,0,0,0V20.67a5,5,0,0,1,.45-1,3.08,3.08,0,0,1,1.8-1.25c.89-.25,1.77-.54,2.66-.81L8,16.66c0,.74,0,1.46,0,2.18l-2,.61-3.12.92a1,1,0,0,0,0,1.92L7.08,23.5A3.57,3.57,0,0,0,8,23.71Z" style="fill:#fff"/><path d="M11.44,5.85c0,1.4,0,2.81,0,4.21a1.27,1.27,0,0,1-.19.76,1,1,0,0,1-.94.34.84.84,0,0,1-.7-.71,3.23,3.23,0,0,1,0-.62c0-2.74,0-5.49,0-8.23a.94.94,0,0,1,.63-1,.91.91,0,0,1,1.2.69c.07.65,0,1.3,0,2C11.45,4.1,11.44,5,11.44,5.85Z" style="fill:#fff"/><path d="M14.89,5.86v4.42a.82.82,0,0,1-.76.88.87.87,0,0,1-1-.68,1.31,1.31,0,0,1,0-.39V1.55A.93.93,0,0,1,14.5.69a.73.73,0,0,1,.39.7C14.9,2.88,14.89,4.37,14.89,5.86Z" style="fill:#fff"/><path d="M8,23.71a3.57,3.57,0,0,1-.9-.21L2.87,22.29a1,1,0,0,1,0-1.92L6,19.45l2-.61Z" style="fill:#d61516"/><path d="M20.19,7.92a3.46,3.46,0,0,1,.49.65c.79,1.12,1.55,2.27,2.36,3.37a2.73,2.73,0,0,0,1.72,1,4.2,4.2,0,0,0,2.29-.3c2.16-.79,4.34-1.54,6.52-2.31,1-.34,2-.71,2.93-1.05a1,1,0,0,1,1.35,1,.8.8,0,0,1-.2.55C36.83,11.92,36,13,35.17,14.09s-1.59,2.1-2.38,3.17c-.57.77-1.19,1.51-1.72,2.31a2.83,2.83,0,0,0-.42,1.2,3.5,3.5,0,0,0,1,2.84c.84,1.05,1.64,2.14,2.46,3.2,1,1.35,2.08,2.69,3.1,4a3.36,3.36,0,0,1,.69,1,.92.92,0,0,1-.24,1,.78.78,0,0,1-.88.27c-1-.3-1.9-.65-2.85-1l-5.14-1.78a25.64,25.64,0,0,0-2.56-.86,3.13,3.13,0,0,0-2.19.36,5,5,0,0,0-1.57,1.73l-3.54,5.2-1.12,1.61-.27,0c-.54,0-.69-.25-.84-.7a2.35,2.35,0,0,1-.05-.65c-.1-2.87,0-5.73-.06-8.6-.08-3.81,0-7.63,0-11.45a2.49,2.49,0,0,1,.37-1.24.74.74,0,0,1,.35-.28,5.24,5.24,0,0,0,2.63-3.55,10.65,10.65,0,0,0,.27-1.88C20.19,9.35,20.14,8.63,20.19,7.92Z" style="fill:#d61516"/></svg>